#!OML:ASF H:\Martial Arts Walks\Project 1\Capture day 1\Session 1\male.ASF
:FULLY-SPECIFIED
:DEGREES
1335
root -4.83444 14.747 31.9152 -171.376 -144.553 173.679
lowerback 12.9404 2.52949 2.36223
upperback -0.35665 3.79926 1.13593
thorax -7.56869 1.77251 -0.853254
lowerneck -1.273 7.00903 1.55448
upperneck 4.01482 9.3884 -2.04656
head 1.64208 4.6679 -0.711846
rclavicle -1.38528e-014 -6.36111e-015
rhumerus -51.4848 32.1415 -80.8437
rradius 110.471
rwrist -2.59672
rhand -15.7517 -27.4494
rfingers 7.12502
rthumb 10.4397 -57.1702
lclavicle -1.38528e-014 -6.36111e-015
lhumerus -15.871 -17.114 82.2046
lradius 108.432
lwrist 28.7736
lhand -23.697 8.46384
lfingers 7.12502
lthumb 2.77 38.4256
rfemur -16.5311 -8.22984 17.9848
rtibia 60.3911
rfoot -28.0819 -31.6215
rtoes -19.2943
lfemur -50.7725 24.392 -3.19854
ltibia 50.7655
lfoot 10.7528 4.14276
ltoes 0.168148
1336
root -4.84705 14.7343 31.9774 -171.838 -145.76 173.997
lowerback 12.7627 2.47036 2.11718
upperback -0.328951 3.67716 1.12378
thorax -7.45595 1.72527 -0.696562
lowerneck -1.3607 6.77212 1.44295
upperneck 4.11467 9.06375 -1.75116
head 1.66106 4.50876 -0.605645
rclavicle 7.62215e-014 2.85256e-014
rhumerus -51.9104 31.7649 -81.0174
rradius 110.481
rwrist -2.79094
rhand -16.1698 -26.7034
rfingers 7.12502
rthumb 10.0363 -56.4441
lclavicle 7.62215e-014 2.85256e-014
lhumerus -15.3672 -17.4472 82.3478
lradius 108.022
lwrist 28.9747
lhand -24.4391 8.36641
lfingers 7.12502
lthumb 2.05327 38.3363
rfemur -15.3741 -7.72402 17.6171
rtibia 60.0434
rfoot -27.465 -32.0316
rtoes -20.743
lfemur -51.0606 24.3168 -4.15635
ltibia 50.9127
lfoot 9.89243 3.37492
ltoes 0.0387638
1337
root -4.85938 14.7147 32.0379 -171.86 -147.063 173.927
lowerback 12.5079 2.44359 2.08068
upperback -0.428382 3.64024 1.22149
thorax -7.42813 1.71176 -0.556563
lowerneck -1.42398 6.45689 1.3187
upperneck 4.22834 8.63794 -1.52163
head 1.68315 4.29802 -0.520574
rclavicle 6.80837e-014 -1.46107e-014
rhumerus -52.3499 31.2898 -81.1278
rradius 110.42
rwrist -3.09338
rhand -16.026 -27.196
rfingers 7.12502
rthumb 10.1751 -56.9299
lclavicle 6.80837e-014 -1.46107e-014
lhumerus -15.1938 -17.6555 82.8818
lradius 107.799
lwrist 28.8916
lhand -24.1021 8.62001
lfingers 7.12502
lthumb 2.37875 38.5865
rfemur -14.3417 -7.0847 17.6339
rtibia 59.6618
rfoot -27.5815 -31.7811
rtoes -21.4248
lfemur -51.713 24.2913 -4.80403
ltibia 51.1489
lfoot 9.16535 2.38903
ltoes -0.12677
1338
root -4.86821 14.6925 32.0969 -172.064 -148.259 173.877
lowerback 12.4491 2.41557 2.07384
upperback -0.463074 3.60644 1.28231
thorax -7.43724 1.6969 -0.48049
lowerneck -1.35052 6.19486 1.05058
upperneck 4.22272 8.28111 -1.16249
head 1.63264 4.12318 -0.378038
rclavicle -5.00565e-014 -7.85199e-015
rhumerus -52.6551 30.7434 -81.1856
rradius 110.33
rwrist -3.26268
rhand -15.5794 -26.9883
rfingers 7.12502
rthumb 10.6059 -56.7006
lclavicle -5.00565e-014 -7.85199e-015
lhumerus -14.7657 -17.9961 83.1592
lradius 107.434
lwrist 28.7479
lhand -24.1422 8.69393
lfingers 7.12502
lthumb 2.34004 38.6608
rfemur -13.2498 -6.40445 17.6475
rtibia 59.3179
rfoot -27.2509 -31.7129
rtoes -22.404
lfemur -52.1275 24.0497 -5.17737
ltibia 51.4483
lfoot 8.40219 1.60753
ltoes 0.24772
1339
root -4.87552 14.6675 32.1569 -172.278 -149.516 173.835
lowerback 12.4261 2.35316 2.09176
upperback -0.529475 3.53278 1.34344
thorax -7.49976 1.66073 -0.413118
lowerneck -1.4003 5.8664 1.07383
upperneck 4.34764 7.83928 -1.0728
head 1.6729 3.90429 -0.359726
rclavicle -3.34207e-014 -1.54058e-014
rhumerus -53.0533 30.2759 -81.302
rradius 110.306
rwrist -3.45351
rhand -15.3036 -26.8263
rfingers 7.12502
rthumb 10.8719 -56.5249
lclavicle -3.34207e-014 -1.54058e-014
lhumerus -14.4429 -18.3117 83.4767
lradius 107.1
lwrist 28.4293
lhand -24.3681 8.63059
lfingers 7.12502
lthumb 2.12182 38.5998
rfemur -12.1615 -5.88705 17.6631
rtibia 58.9853
rfoot -26.7549 -31.7676
rtoes -23.7428
lfemur -52.5548 23.7345 -5.56585
ltibia 51.8426
lfoot 7.66321 0.597547
ltoes 0.351011
1340
root -4.87914 14.6401 32.2221 -172.38 -150.677 173.618
lowerback 12.2826 2.29949 2.33864
upperback -0.553591 3.49863 1.40539
thorax -7.43427 1.63708 -0.473703
lowerneck -1.30619 5.64163 0.936237
upperneck 4.29012 7.53296 -0.825705
head 1.61752 3.75471 -0.272258
rclavicle -5.85918e-014 9.14409e-015
rhumerus -53.397 29.8531 -81.4832
rradius 110.294
rwrist -3.77573
rhand -15.3177 -27.2323
rfingers 7.12502
rthumb 10.8583 -56.9316
lclavicle -5.85918e-014 9.14409e-015
lhumerus -14.0805 -18.5611 83.7776
lradius 106.762
lwrist 27.9632
lhand -24.3812 8.51581
lfingers 7.12502
lthumb 2.10916 38.4851
rfemur -11.1492 -5.4391 17.8172
rtibia 58.6779
rfoot -26.8458 -31.4213
rtoes -24.0195
lfemur -52.9232 23.4163 -5.70706
ltibia 52.2699
lfoot 6.87716 -0.316511
ltoes 0.395638
1341
root -4.87904 14.6069 32.2837 -172.588 -151.754 173.49
lowerback 12.2614 2.22129 2.53516
upperback -0.608592 3.42767 1.44385
thorax -7.47383 1.59492 -0.530594
lowerneck -1.24555 5.43602 0.76319
upperneck 4.38773 7.25208 -0.536817
head 1.61631 3.61726 -0.161628
rclavicle 1.23743e-014 2.5842e-015
rhumerus -53.8128 29.5261 -81.7446
rradius 110.232
rwrist -4.02623
rhand -15.9783 -25.8075
rfingers 7.12502
rthumb 10.2211 -55.5391
lclavicle 1.23743e-014 2.5842e-015
lhumerus -13.7032 -18.848 83.9179
lradius 106.377
lwrist 27.6322
lhand -24.6996 8.47157
lfingers 7.12502
lthumb 1.80171 38.4437
rfemur -10.1447 -5.00686 17.8968
rtibia 58.3973
rfoot -27.2587 -30.8911
rtoes -23.4958
lfemur -53.1593 22.9833 -5.79255
ltibia 52.7065
lfoot 6.02082 -1.04139
ltoes 0.966871
